<svg xmlns="http://www.w3.org/2000/svg" viewBox="0 0 903 23.39"><defs><style>.cls-1{fill:#1b75bc;}.cls-2{fill:none;stroke:#2e3192;stroke-linecap:round;stroke-linejoin:round;stroke-width:3px;}</style></defs><title>Asset 1</title><g id="Layer_2" data-name="Layer 2"><g id="Layer_1-2" data-name="Layer 1"><path class="cls-1" d="M750.27,23.39H375.88V6.46C396.12,5,415.6,1.93,436.59,2.09c27.17,2,54.23,5.63,81.35,8.44C544,9.27,577.53,4.8,607.32,1.93,617.26,3,634.19,1,643.16,3.21c14.95,3.71,18.1,3,28.89,5.56,15.82,3.71,32.86,2.38,52.46,2.67,8.47-2,17.3-1.31,25.77-3.29Z"/><path class="cls-1" d="M901.5,10.29v13.1H748.37V7.6c18.79-3.06,39.71-5.67,60.71-5.51,27.64,1.49,54.23,5.63,81.35,8.44"/><path class="cls-1" d="M375.88,23.39H1.5V6.46C21.74,5,41.21,1.93,62.21,2.09c27.17,2,54.23,5.63,81.35,8.44,26.05-1.26,59.58-5.73,89.38-8.6C242.88,3,259.81,1,268.77,3.21c14.95,3.71,18.1,3,28.89,5.56,15.82,3.71,32.86,2.38,52.46,2.67,8.47-2,17.3-1.31,25.77-3.29Z"/><path class="cls-2" d="M753.7,6.6c-22.79,8-69.53,5-90-.36-20.21-5.34-61.15-6-101.18,0-55.22,8.25-51.91,2.12-101.18-2.65s-83,2.62-83,2.62l-1.57.56c-22.79,8-69.44,4.88-89.9-.52-20.21-5.34-61.15-6-101.18,0-55.22,8.25-51.91,2.12-101.18-2.65s-83,2.88-83,2.88"/><path class="cls-2" d="M901.5,9.33c-14.84,2.32-9.22,1.12-64.79-5.74-48.62-6-83,2.88-83,2.88"/></g></g></svg>